<svg xmlns="http://www.w3.org/2000/svg" xmlns:xlink="http://www.w3.org/1999/xlink" version="1.1" data-diagram-type="SEQUENCE" style="width:3384px;height:1596px;background:#FFFFFF;" width="3384.375px" height="1596.875px" viewBox="0 0 3384 1596" zoomAndPan="magnify" preserveAspectRatio="none" contentStyleType="text/css"><?plantuml 1.2026.8?><defs/><g font-family="sans-serif" lengthAdjust="spacing"><g class="title" data-source-line="403"><text x="1236.275" y="40.282" fill="#000" font-size="21.875" textLength="909.639" font-weight="700" font-family="Helvetica">Restaurant Rush - sequence diagram (9/10): turn 11 - the Cashier collects C3's payment</text></g><rect x="196.243" y="71.875" width="235.838" height="1501.563" fill="#F3F7FF" style="stroke:#181818;stroke-width:0.781;"/><text x="275.012" y="85.11" fill="#000" font-size="17.188" textLength="78.3" font-weight="700" font-family="Helvetica">boundary</text><rect x="450.831" y="71.875" width="808.605" height="1501.563" fill="#F4FBF4" style="stroke:#181818;stroke-width:0.781;"/><text x="826.012" y="85.11" fill="#000" font-size="17.188" textLength="58.243" font-weight="700" font-family="Helvetica">control</text><rect x="1278.186" y="71.875" width="574.726" height="1501.563" fill="#FFF7F0" style="stroke:#181818;stroke-width:0.781;"/><text x="1519.236" y="85.11" fill="#000" font-size="17.188" textLength="92.626" font-weight="700" font-family="Helvetica">entity: staff</text><rect x="1871.662" y="71.875" width="1307.402" height="1501.563" fill="#FFF7F0" style="stroke:#181818;stroke-width:0.781;"/><text x="2466.638" y="85.11" fill="#000" font-size="17.188" textLength="117.451" font-weight="700" font-family="Helvetica">entity: domain</text><rect x="20.313" y="206.25" width="3333.752" height="1303.125" fill="none" style="stroke:#555;stroke-width:2.344;"/><rect x="466.481" y="290.625" width="2713.068" height="1148.438" fill="none" style="stroke:#555;stroke-width:2.344;"/><rect x="682.077" y="675" width="2458.409" height="742.188" fill="none" style="stroke:#555;stroke-width:2.344;"/><g><title>Manager</title><rect x="128.906" y="206.25" width="12.5" height="1359.375" fill="#000" fill-opacity="0"/><line x1="134.375" y1="206.25" x2="134.375" y2="1565.625" style="stroke:#777;stroke-width:0.781;stroke-dasharray:7.813,7.813;"/></g><g><title>.GameCLI</title><rect x="368.712" y="206.25" width="12.5" height="1359.375" fill="#000" fill-opacity="0"/><line x1="374.181" y1="206.25" x2="374.181" y2="1565.625" style="stroke:#777;stroke-width:0.781;stroke-dasharray:7.813,7.813;"/></g><g><title>.GameController</title><rect x="701.608" y="206.25" width="12.5" height="1359.375" fill="#000" fill-opacity="0"/><line x1="707.077" y1="206.25" x2="707.077" y2="1565.625" style="stroke:#777;stroke-width:0.781;stroke-dasharray:7.813,7.813;"/></g><g><title></title><rect x="699.265" y="206.25" width="15.625" height="1359.375" fill="#FFF" style="stroke:#181818;stroke-width:1.563;"/></g><g><title>.ArrivalSchedule</title><rect x="905.109" y="206.25" width="12.5" height="1359.375" fill="#000" fill-opacity="0"/><line x1="910.578" y1="206.25" x2="910.578" y2="1565.625" style="stroke:#777;stroke-width:0.781;stroke-dasharray:7.813,7.813;"/></g><g><title>.GameConfig</title><rect x="1055.814" y="206.25" width="12.5" height="1359.375" fill="#000" fill-opacity="0"/><line x1="1061.282" y1="206.25" x2="1061.282" y2="1565.625" style="stroke:#777;stroke-width:0.781;stroke-dasharray:7.813,7.813;"/></g><g><title>.Host</title><rect x="1368.069" y="206.25" width="12.5" height="1359.375" fill="#000" fill-opacity="0"/><line x1="1373.537" y1="206.25" x2="1373.537" y2="1565.625" style="stroke:#777;stroke-width:0.781;stroke-dasharray:7.813,7.813;"/></g><g><title></title></g><g><title>.Waiter</title><rect x="1514.284" y="206.25" width="12.5" height="1359.375" fill="#000" fill-opacity="0"/><line x1="1519.753" y1="206.25" x2="1519.753" y2="1565.625" style="stroke:#777;stroke-width:0.781;stroke-dasharray:7.813,7.813;"/></g><g><title>.Chef</title><rect x="1599.54" y="206.25" width="12.5" height="1359.375" fill="#000" fill-opacity="0"/><line x1="1605.009" y1="206.25" x2="1605.009" y2="1565.625" style="stroke:#777;stroke-width:0.781;stroke-dasharray:7.813,7.813;"/></g><g><title>.Cashier</title><rect x="1689.581" y="206.25" width="12.5" height="1359.375" fill="#000" fill-opacity="0"/><line x1="1695.049" y1="206.25" x2="1695.049" y2="1565.625" style="stroke:#777;stroke-width:0.781;stroke-dasharray:7.813,7.813;"/></g><g><title></title><rect x="1687.237" y="757.813" width="15.625" height="542.188" fill="#FFF" style="stroke:#181818;stroke-width:1.563;"/></g><g><title>.Restaurant</title><rect x="2000.566" y="206.25" width="12.5" height="1359.375" fill="#000" fill-opacity="0"/><line x1="2006.035" y1="206.25" x2="2006.035" y2="1565.625" style="stroke:#777;stroke-width:0.781;stroke-dasharray:7.813,7.813;"/></g><g><title>.TurnLog</title><rect x="2156.516" y="206.25" width="12.5" height="1359.375" fill="#000" fill-opacity="0"/><line x1="2161.984" y1="206.25" x2="2161.984" y2="1565.625" style="stroke:#777;stroke-width:0.781;stroke-dasharray:7.813,7.813;"/></g><g><title>.Scoreboard</title><rect x="2275.228" y="206.25" width="12.5" height="1359.375" fill="#000" fill-opacity="0"/><line x1="2280.697" y1="206.25" x2="2280.697" y2="1565.625" style="stroke:#777;stroke-width:0.781;stroke-dasharray:7.813,7.813;"/></g><g><title>.HappyHour</title><rect x="2405.4" y="206.25" width="12.5" height="1359.375" fill="#000" fill-opacity="0"/><line x1="2410.869" y1="206.25" x2="2410.869" y2="1565.625" style="stroke:#777;stroke-width:0.781;stroke-dasharray:7.813,7.813;"/></g><g><title>c3.CriticCustomer</title><rect x="2644.987" y="206.25" width="12.5" height="1359.375" fill="#000" fill-opacity="0"/><line x1="2650.456" y1="206.25" x2="2650.456" y2="1565.625" style="stroke:#777;stroke-width:0.781;stroke-dasharray:7.813,7.813;"/></g><g><title>o3.Order</title><rect x="3021.465" y="206.25" width="12.5" height="1359.375" fill="#000" fill-opacity="0"/><line x1="3026.933" y1="206.25" x2="3026.933" y2="1565.625" style="stroke:#777;stroke-width:0.781;stroke-dasharray:7.813,7.813;"/></g><text x="95.77" y="202.297" fill="#000" font-size="17.188" textLength="67.835" font-family="Helvetica">Manager</text><ellipse cx="134.375" cy="108.594" rx="12.5" ry="12.5" fill="#E2E2F0" style="stroke:#181818;stroke-width:0.781;"/><path d="M134.375,121.094 L134.375,163.281 M114.063,133.594 L154.688,133.594 M134.375,163.281 L114.063,186.719 M134.375,163.281 L154.688,186.719" style="stroke:#181818;stroke-width:0.781;" fill="none"/><rect x="324.08" y="165.625" width="100.201" height="39.063" fill="#FFF" style="stroke:#444;stroke-width:0.781;" rx="3.906" ry="3.906"/><text x="335.018" y="189.797" fill="#000" font-size="17.188" textLength="78.326" font-family="Helvetica">:GameCLI</text><rect x="633.096" y="165.625" width="147.961" height="39.063" fill="#FFF" style="stroke:#444;stroke-width:0.781;" rx="3.906" ry="3.906"/><text x="644.034" y="189.797" fill="#000" font-size="17.188" textLength="126.086" font-family="Helvetica">:GameController</text><rect x="837.067" y="165.625" width="147.021" height="39.063" fill="#FFF" style="stroke:#444;stroke-width:0.781;" rx="3.906" ry="3.906"/><text x="848.005" y="189.797" fill="#000" font-size="17.188" textLength="125.146" font-family="Helvetica">:ArrivalSchedule</text><rect x="999.714" y="165.625" width="123.137" height="39.063" fill="#FFF" style="stroke:#444;stroke-width:0.781;" rx="3.906" ry="3.906"/><text x="1010.651" y="189.797" fill="#000" font-size="17.188" textLength="101.262" font-family="Helvetica">:GameConfig</text><rect x="1342.542" y="165.625" width="61.99" height="39.063" fill="#FFF" style="stroke:#444;stroke-width:0.781;" rx="3.906" ry="3.906"/><text x="1353.48" y="189.797" fill="#000" font-size="17.188" textLength="40.115" font-family="Helvetica">:Host</text><rect x="1481.599" y="165.625" width="76.308" height="39.063" fill="#FFF" style="stroke:#444;stroke-width:0.781;" rx="3.906" ry="3.906"/><text x="1492.536" y="189.797" fill="#000" font-size="17.188" textLength="54.433" font-family="Helvetica">:Waiter</text><rect x="1573.531" y="165.625" width="62.955" height="39.063" fill="#FFF" style="stroke:#444;stroke-width:0.781;" rx="3.906" ry="3.906"/><text x="1584.469" y="189.797" fill="#000" font-size="17.188" textLength="41.08" font-family="Helvetica">:Chef</text><rect x="1652.112" y="165.625" width="85.875" height="39.063" fill="#FFF" style="stroke:#444;stroke-width:0.781;" rx="3.906" ry="3.906"/><text x="1663.049" y="189.797" fill="#000" font-size="17.188" textLength="64" font-family="Helvetica">:Cashier</text><rect x="1950.673" y="165.625" width="110.725" height="39.063" fill="#FFF" style="stroke:#444;stroke-width:0.781;" rx="3.906" ry="3.906"/><text x="1961.61" y="189.797" fill="#000" font-size="17.188" textLength="88.85" font-family="Helvetica">:Restaurant</text><rect x="2116.651" y="165.625" width="90.667" height="39.063" fill="#FFF" style="stroke:#444;stroke-width:0.781;" rx="3.906" ry="3.906"/><text x="2127.588" y="189.797" fill="#000" font-size="17.188" textLength="68.792" font-family="Helvetica">:TurnLog</text><rect x="2222.943" y="165.625" width="115.508" height="39.063" fill="#FFF" style="stroke:#444;stroke-width:0.781;" rx="3.906" ry="3.906"/><text x="2233.88" y="189.797" fill="#000" font-size="17.188" textLength="93.633" font-family="Helvetica">:Scoreboard</text><rect x="2354.076" y="165.625" width="113.586" height="39.063" fill="#FFF" style="stroke:#444;stroke-width:0.781;" rx="3.906" ry="3.906"/><text x="2365.014" y="189.797" fill="#000" font-size="17.188" textLength="91.711" font-family="Helvetica">:HappyHour</text><rect x="20.313" y="206.25" width="3333.752" height="1303.125" fill="none" style="stroke:#555;stroke-width:2.344;"/><line x1="15.625" y1="221.875" x2="3368.127" y2="221.875" style="stroke:#181818;stroke-width:0.781;stroke-dasharray:3.125,3.125;"/><rect x="2575.922" y="246.875" width="148.438" height="29.688" fill="#FFF" style="stroke:#B8A060;stroke-width:0.781;"/><text x="2582.172" y="266.36" fill="#000" font-size="17.188" textLength="136.568" font-family="Helvetica">c3:CriticCustomer</text><rect x="2986.77" y="246.875" width="79.688" height="29.688" fill="#FFF" style="stroke:#B8A060;stroke-width:0.781;"/><text x="2993.02" y="266.36" fill="#000" font-size="17.188" textLength="67.827" font-family="Helvetica">o3:Order</text><path d="M466.481,290.625 L563.515,290.625 L563.515,295.313 L547.89,310.938 L466.481,310.938 L466.481,290.625" style="stroke:#555;stroke-width:2.344;" fill="#EEE"/><rect x="466.481" y="290.625" width="2713.068" height="1148.438" fill="none" style="stroke:#555;stroke-width:2.344;"/><text x="489.919" y="305.422" fill="#000" font-size="17.188" textLength="26.721" font-weight="700" font-family="Helvetica">opt</text><text x="586.952" y="306.985" fill="#000" font-size="17.188" textLength="344.614" font-weight="700" font-family="Helvetica">[t = 11: the Cashier collects C3's payment]</text><line x1="714.89" y1="353.125" x2="780.515" y2="353.125" style="stroke:#181818;stroke-width:1.563;"/><line x1="780.515" y1="353.125" x2="780.515" y2="373.438" style="stroke:#181818;stroke-width:1.563;"/><line x1="716.452" y1="373.438" x2="780.515" y2="373.438" style="stroke:#181818;stroke-width:1.563;"/><polygon points="732.077,367.188,716.452,373.438,732.077,379.688,725.827,373.438" fill="#181818" style="stroke:#181818;stroke-width:1.563;stroke-linejoin:miter;stroke-miterlimit:10;"/><text x="725.827" y="346.047" fill="#000" font-size="17.188" textLength="97.435" font-family="Helvetica">playTurn(11)</text><path d="M499.294,393.75 L499.294,443.75 L697.731,443.75 L697.731,409.375 L682.106,393.75 L499.294,393.75" style="stroke:#B8A060;stroke-width:0.781;" fill="#FFF8DC"/><path d="M682.106,393.75 L682.106,409.375 L697.731,409.375 L682.106,393.75" style="stroke:#B8A060;stroke-width:0.781;" fill="#FFF8DC"/><text x="508.669" y="414.797" fill="#000" font-size="17.188" textLength="166.647" font-family="Helvetica">the Chef finishes C4's</text><text x="508.669" y="431.985" fill="#000" font-size="17.188" textLength="167.159" font-family="Helvetica">order first (not shown)</text><polygon points="1676.299,471.875,1691.924,478.125,1676.299,484.375,1682.549,478.125" fill="#181818" style="stroke:#181818;stroke-width:1.563;stroke-linejoin:miter;stroke-miterlimit:10;"/><line x1="714.89" y1="478.125" x2="1685.674" y2="478.125" style="stroke:#181818;stroke-width:1.563;"/><text x="725.827" y="471.047" fill="#000" font-size="17.188" textLength="204.429" font-family="Helvetica">collectPayment(restaurant,</text><text x="930.256" y="471.047" fill="#000" font-size="17.188" font-family="Helvetica"> </text><text x="935.031" y="471.047" fill="#000" font-size="17.188" textLength="24.841" font-family="Helvetica">11)</text><polygon points="1987.285,510.938,2002.91,517.188,1987.285,523.438,1993.535,517.188" fill="#181818" style="stroke:#181818;stroke-width:1.563;stroke-linejoin:miter;stroke-miterlimit:10;"/><line x1="1695.049" y1="517.188" x2="1996.66" y2="517.188" style="stroke:#181818;stroke-width:1.563;"/><text x="1705.987" y="510.11" fill="#000" font-size="17.188" textLength="90.721" font-family="Helvetica">customers()</text><polygon points="1712.237,550,1696.612,556.25,1712.237,562.5,1705.987,556.25" fill="#181818" style="stroke:#181818;stroke-width:1.563;stroke-linejoin:miter;stroke-miterlimit:10;"/><line x1="1702.862" y1="556.25" x2="2004.472" y2="556.25" style="stroke:#181818;stroke-width:1.563;stroke-dasharray:3.125,3.125;"/><text x="1721.612" y="549.172" fill="#000" font-size="17.188" textLength="26.746" font-family="Helvetica">[C1</text><text x="1748.358" y="549.172" fill="#000" font-size="17.188" font-family="Helvetica"> </text><text x="1753.133" y="549.172" fill="#000" font-size="17.188" textLength="14.326" font-family="Helvetica">...</text><text x="1767.459" y="549.172" fill="#000" font-size="17.188" font-family="Helvetica"> </text><text x="1772.234" y="549.172" fill="#000" font-size="17.188" textLength="26.746" font-family="Helvetica">C4]</text><path d="M1702.862,576.563 L1702.862,660.938 L1838.799,660.938 L1838.799,592.188 L1823.174,576.563 L1702.862,576.563" style="stroke:#B8A060;stroke-width:0.781;" fill="#FFF8DC"/><path d="M1823.174,576.563 L1823.174,592.188 L1838.799,592.188 L1823.174,576.563" style="stroke:#B8A060;stroke-width:0.781;" fill="#FFF8DC"/><text x="1712.237" y="597.61" fill="#000" font-size="17.188" textLength="83.101" font-family="Helvetica">oldest first:</text><text x="1712.237" y="614.797" fill="#000" font-size="17.188" textLength="103.175" font-family="Helvetica">earliest ready</text><text x="1712.237" y="631.985" fill="#000" font-size="17.188" textLength="72.619" font-family="Helvetica">turn, then</text><text x="1712.237" y="649.172" fill="#000" font-size="17.188" textLength="75.464" font-family="Helvetica">arrival no.</text><path d="M682.077,675 L772.447,675 L772.447,679.688 L756.822,695.313 L682.077,695.313 L682.077,675" style="stroke:#555;stroke-width:2.344;" fill="#EEE"/><rect x="682.077" y="675" width="2458.409" height="742.188" fill="none" style="stroke:#555;stroke-width:2.344;"/><text x="705.515" y="689.797" fill="#000" font-size="17.188" textLength="20.058" font-weight="700" font-family="Helvetica">alt</text><text x="795.885" y="691.36" fill="#000" font-size="17.188" textLength="387.743" font-weight="700" font-family="Helvetica">[someone READY_TO_PAY before turn 11 (C3)]</text><line x1="1695.049" y1="737.5" x2="1768.487" y2="737.5" style="stroke:#181818;stroke-width:1.563;"/><line x1="1768.487" y1="737.5" x2="1768.487" y2="757.813" style="stroke:#181818;stroke-width:1.563;"/><line x1="1704.424" y1="757.813" x2="1768.487" y2="757.813" style="stroke:#181818;stroke-width:1.563;"/><polygon points="1720.049,751.563,1704.424,757.813,1720.049,764.063,1713.799,757.813" fill="#181818" style="stroke:#181818;stroke-width:1.563;stroke-linejoin:miter;stroke-miterlimit:10;"/><text x="1713.799" y="730.422" fill="#000" font-size="17.188" textLength="116.528" font-family="Helvetica">perform(action)</text><polygon points="2631.706,790.625,2647.331,796.875,2631.706,803.125,2637.956,796.875" fill="#181818" style="stroke:#181818;stroke-width:1.563;stroke-linejoin:miter;stroke-miterlimit:10;"/><line x1="1702.862" y1="796.875" x2="2641.081" y2="796.875" style="stroke:#181818;stroke-width:1.563;"/><text x="1713.799" y="789.797" fill="#000" font-size="17.188" textLength="51.571" font-family="Helvetica">order()</text><polygon points="1720.049,829.688,1704.424,835.938,1720.049,842.188,1713.799,835.938" fill="#181818" style="stroke:#181818;stroke-width:1.563;stroke-linejoin:miter;stroke-miterlimit:10;"/><line x1="1710.674" y1="835.938" x2="2648.894" y2="835.938" style="stroke:#181818;stroke-width:1.563;stroke-dasharray:3.125,3.125;"/><text x="1729.424" y="828.86" fill="#000" font-size="17.188" textLength="19.118" font-family="Helvetica">o3</text><polygon points="3008.183,868.75,3023.808,875,3008.183,881.25,3014.433,875" fill="#181818" style="stroke:#181818;stroke-width:1.563;stroke-linejoin:miter;stroke-miterlimit:10;"/><line x1="1702.862" y1="875" x2="3017.558" y2="875" style="stroke:#181818;stroke-width:1.563;"/><text x="1713.799" y="867.922" fill="#000" font-size="17.188" textLength="48.701" font-family="Helvetica">price()</text><polygon points="1720.049,907.813,1704.424,914.063,1720.049,920.313,1713.799,914.063" fill="#181818" style="stroke:#181818;stroke-width:1.563;stroke-linejoin:miter;stroke-miterlimit:10;"/><line x1="1710.674" y1="914.063" x2="3025.371" y2="914.063" style="stroke:#181818;stroke-width:1.563;stroke-dasharray:3.125,3.125;"/><text x="1729.424" y="906.985" fill="#000" font-size="17.188" textLength="52.57" font-family="Helvetica">$18.00</text><polygon points="2631.706,946.875,2647.331,953.125,2631.706,959.375,2637.956,953.125" fill="#181818" style="stroke:#181818;stroke-width:1.563;stroke-linejoin:miter;stroke-miterlimit:10;"/><line x1="1702.862" y1="953.125" x2="2641.081" y2="953.125" style="stroke:#181818;stroke-width:1.563;"/><text x="1713.799" y="946.047" fill="#000" font-size="17.188" textLength="84.041" font-family="Helvetica">markPaid()</text><polygon points="3008.183,985.938,3023.808,992.188,3008.183,998.438,3014.433,992.188" fill="#181818" style="stroke:#181818;stroke-width:1.563;stroke-linejoin:miter;stroke-miterlimit:10;"/><line x1="2650.456" y1="992.188" x2="3017.558" y2="992.188" style="stroke:#181818;stroke-width:1.563;"/><text x="2661.394" y="985.11" fill="#000" font-size="17.188" textLength="84.041" font-family="Helvetica">markPaid()</text><path d="M3034.746,1012.5 L3034.746,1045.313 L3106.621,1045.313 L3106.621,1028.125 L3090.996,1012.5 L3034.746,1012.5" style="stroke:#B8A060;stroke-width:0.781;" fill="#FFF8DC"/><path d="M3090.996,1012.5 L3090.996,1028.125 L3106.621,1028.125 L3090.996,1012.5" style="stroke:#B8A060;stroke-width:0.781;" fill="#FFF8DC"/><text x="3044.121" y="1033.547" fill="#000" font-size="17.188" textLength="40.115" font-family="Helvetica">PAID</text><line x1="2650.456" y1="1079.688" x2="2716.081" y2="1079.688" style="stroke:#181818;stroke-width:1.563;"/><line x1="2716.081" y1="1079.688" x2="2716.081" y2="1100" style="stroke:#181818;stroke-width:1.563;"/><line x1="2652.019" y1="1100" x2="2716.081" y2="1100" style="stroke:#181818;stroke-width:1.563;"/><polygon points="2667.644,1093.75,2652.019,1100,2667.644,1106.25,2661.394,1100" fill="#181818" style="stroke:#181818;stroke-width:1.563;stroke-linejoin:miter;stroke-miterlimit:10;"/><text x="2661.394" y="1072.61" fill="#000" font-size="17.188" textLength="110.812" font-family="Helvetica">releaseTable()</text><path d="M2658.269,1120.313 L2658.269,1187.5 L2789.519,1187.5 L2789.519,1135.938 L2773.894,1120.313 L2658.269,1120.313" style="stroke:#B8A060;stroke-width:0.781;" fill="#FFF8DC"/><path d="M2773.894,1120.313 L2773.894,1135.938 L2789.519,1135.938 L2773.894,1120.313" style="stroke:#B8A060;stroke-width:0.781;" fill="#FFF8DC"/><text x="2667.644" y="1141.36" fill="#000" font-size="17.188" textLength="95.538" font-family="Helvetica">records 100,</text><text x="2667.644" y="1158.547" fill="#000" font-size="17.188" textLength="99.365" font-family="Helvetica">frees table 1,</text><text x="2667.644" y="1175.735" fill="#000" font-size="17.188" textLength="40.115" font-family="Helvetica">PAID</text><polygon points="1987.285,1215.625,2002.91,1221.875,1987.285,1228.125,1993.535,1221.875" fill="#181818" style="stroke:#181818;stroke-width:1.563;stroke-linejoin:miter;stroke-miterlimit:10;"/><line x1="1702.862" y1="1221.875" x2="1996.66" y2="1221.875" style="stroke:#181818;stroke-width:1.563;"/><text x="1713.799" y="1214.797" fill="#000" font-size="17.188" textLength="34.383" font-family="Helvetica">log()</text><polygon points="1720.049,1254.688,1704.424,1260.938,1720.049,1267.188,1713.799,1260.938" fill="#181818" style="stroke:#181818;stroke-width:1.563;stroke-linejoin:miter;stroke-miterlimit:10;"/><line x1="1710.674" y1="1260.938" x2="2004.472" y2="1260.938" style="stroke:#181818;stroke-width:1.563;stroke-dasharray:3.125,3.125;"/><text x="1729.424" y="1253.86" fill="#000" font-size="17.188" textLength="22.936" font-family="Helvetica">log</text><polygon points="2143.234,1293.75,2158.859,1300,2143.234,1306.25,2149.484,1300" fill="#181818" style="stroke:#181818;stroke-width:1.563;stroke-linejoin:miter;stroke-miterlimit:10;"/><line x1="1702.862" y1="1300" x2="2152.609" y2="1300" style="stroke:#181818;stroke-width:1.563;"/><text x="1713.799" y="1292.922" fill="#000" font-size="17.188" textLength="100.322" font-family="Helvetica">add(payment</text><text x="1814.121" y="1292.922" fill="#000" font-size="17.188" font-family="Helvetica"> </text><text x="1818.896" y="1292.922" fill="#000" font-size="17.188" textLength="32.478" font-family="Helvetica">line)</text><polygon points="732.077,1332.813,716.452,1339.063,732.077,1345.313,725.827,1339.063" fill="#181818" style="stroke:#181818;stroke-width:1.563;stroke-linejoin:miter;stroke-miterlimit:10;"/><line x1="722.702" y1="1339.063" x2="1693.487" y2="1339.063" style="stroke:#181818;stroke-width:1.563;stroke-dasharray:3.125,3.125;"/><text x="741.452" y="1331.985" fill="#000" font-size="17.188" textLength="91.72" font-family="Helvetica">Optional[c3]</text><line x1="682.077" y1="1353.125" x2="3140.486" y2="1353.125" style="stroke:#555;stroke-width:1.563;stroke-dasharray:3.125,3.125;"/><text x="689.89" y="1369.485" fill="#000" font-size="17.188" textLength="142.284" font-weight="700" font-family="Helvetica">[nobody can pay]</text><polygon points="732.077,1398.438,716.452,1404.688,732.077,1410.938,725.827,1404.688" fill="#181818" style="stroke:#181818;stroke-width:1.563;stroke-linejoin:miter;stroke-miterlimit:10;"/><line x1="722.702" y1="1404.688" x2="1693.487" y2="1404.688" style="stroke:#181818;stroke-width:1.563;stroke-dasharray:3.125,3.125;"/><text x="741.452" y="1397.61" fill="#000" font-size="17.188" textLength="127.043" font-family="Helvetica">Optional.empty()</text><path d="M1344.384,1468.75 L1344.384,1501.563 L1724.071,1501.563 L1724.071,1484.375 L1708.446,1468.75 L1344.384,1468.75" style="stroke:#B8A060;stroke-width:0.781;" fill="#FFF8DC"/><path d="M1708.446,1468.75 L1708.446,1484.375 L1724.071,1484.375 L1708.446,1468.75" style="stroke:#B8A060;stroke-width:0.781;" fill="#FFF8DC"/><text x="1355.782" y="1489.797" fill="#000" font-size="17.188" textLength="342.961" font-family="Helvetica">turns 12-18: the other customers (not shown)</text><line x1="15.625" y1="1546.875" x2="3368.127" y2="1546.875" style="stroke:#181818;stroke-width:0.781;stroke-dasharray:3.125,3.125;"/><?plantuml-src rLphRzkwal_kluARUnQLSMpNiftuaRIBr4rF2_IqGHAqE6WEBXY9ZdGZYrv9JfgzkF_xpWn9YNevZ_PSxEP3OPlaS3YS-Ss3P5-mCv5cV9lmE6DdspHWVPQA_zwAs1FC3_brmjS3zav6aRnBMRADqvUtePV9v7wGVSyOprZ6hnbGk1RzyO9bWM3B9Cn2Zot7R9N8DUD94jxogFE2ETasYTcqopB9Dln-BM1AzPlhTdiuDYO2YKYtKSQyG7WtZAyoaJ3LQpO0RcCVlj-5MG3zyFCW3GQTz2QCDnnuPMd0VNaNnjTinQDKM2t-9cJk_j3-HQmupFHEnjadlXRilOXk1V3Ec_kSX_yZW5MhSSs__oxI51QlsahKZHXrZ-Cel8vP95QPrGUMkf5nQlgy4I3cuoIHTonBjZRpR-JtDpA1vIvb944Ui5yfj8086sPa_-mmzZ5SYOzXBEnXVvlI7xIUyWGM6cvWsqiT9lHNwS2zc-j4RcDVTtf7Vz3fD_XrKng_Jt-cwRtWq4Ioo-uZmQvav7V-PN4SoqnnspJ7xEqIMspoRsR7muCXa0X2Nx2LbDcL_DxfSDH8zZkFGOP91tvYUrT8YoVtUq1g_6vAx6wADR6znM-mvSkF7_OOJvaNXHtG9eRKQBW7F2Somj6JTs_UJPf7gqwHI1IHB8bg_OwL-f-3DllRI5375B-qKLo5rueQVInp1TiTPlSBjBVLQe-4D7qth55wBzECQ0JmeTRwbOUPvlYEFjPwB0EnKZp0XtehJuFGB5bzRkRIbsiUnkri5iX3jC0MwinUWE5_b4eYaRokjPzxCX5NaYU-bYnyhSk3RpRtx-LMyHm4rGxUUA50QxbDCxasQnjN-ydnuZCg8pNBSRxg3gmNjFjX96ME-z8TTcsSV96osp0DCnOgy3j7A6LZfb4M8HS8AUHaL-8wZDDEXyo6UubCK-3nwEhrkITYdeJowENLwyL3CCsSmKleCa0M-y8B93kg3UaEW310U9WohZbT62XdVnip6MkUUh0jgKYPEs8fpy9q1ROOGki6KHhK2v4OU_Q07WTv9G8wfEW20a2v5MnwGEi6M_PnjZlq0YWEs4oHt0f_e5QeZHjKKeOUp9S575q4Zq5QE5vkCm-s3WK00notor1rs8mv6nJeFWWz1Q_X1SWwAGH3ZUYnLE8w4-79Mv70ElP9Ma0Hf9LaJAw8_HGe8VjpP8V-FgmiCiXkB800swR2xo55y72fybCbkKmFOAVJ380HIRl38H9qHfhTkMPtYkpYyf6IL9eXu-XU2Hs_-I483eMKXL6av3X0dh1DMJY9FpNiwac9jNp7rc0jj2oReWSWdU-lEsHEVuGgMrhImGpPlgWwQyKyQ3YuOOmNxd2JOCC3lMq02OBsddOyZ46No687P4gerPtEj_vhGb96Uknq4Tn1wq3X2Lz9zT6BelWqudeSC1XCyHvSG1WFDX6_TqY1BzJEzLsN6D8Y310XG1eRhKLXV2iZ4hNDHoJb1hGIV2rxnLnaMY7o09m-qNMwe6QpBj0Ydb1zYA6UxWWBK9hZzWz0V2u9UZbY3dGdTc8SApSPpJ0b2PE52RLf98H26BWgdDUPTalDYF5ieRILsilD2k9tT42CtzMi4BwX1wqw2Qy3jHLvFnc3HVBq1Y7WCYOjGXKeKur2f0X2G88gJ700Ir2UrF7LAq12iM5kWJglNfL8a1DbUVDnbWi680QrPKpVL3USSWoTZuvKw-lNbt4PyfrnZsa2UaWX-iyRD5qUVVF6Vr8FtBGKHk5IzPQ1Ae7ju6grnHa-qQqXc_uwp1nltDNDz3CqWrEZLjynwumWQ3EzoZBMf41FoBHxbt49MW1CQ1ZeS8kmmRbamaboFzLJvaV-4wZnMnv6_2eI5x1zeDzQdZ0Sg1W0NXXdb28nQxSij5pOqEWB3nmSy5VPGBsQm3XdhLPAC8NmWxBc107y5gR7XbKzAWZiCHGycutA9nZKXrM51Ei-rd2J1mrE4EITgwBOAzRvcktfNgOvfpfKDdyliXAXWb-LgZJjdLakCjMyLXgB4nWVTb-e8lP7YeXHuex0-J51oaW7AMgV-uJM65D2Lmw-UucMbLYWDpOf0R1JYwLiZ6CEnjLXl1M-3eAgP0lB7vby4hjOsQ5oRjOF6Assw9R7utEWVQvCjKN1ScNXwCUQHZ16pY0H6sXYMrX1156HTcdfrlE4y7D7Mz4ew0NU5jU0T24QSYxZmW2xnQYwQj6wrNYSpiIc-P2Qde5lMOvh9Ckoi2385WMDbpT806E0hySVBZvy-cqNUySPkFSGN7k6zlHVEzXocNE1VPXReTU0i4P87i1nfWVzMHEjyNcu7XlDx57v8EfS30Al15vzxIZGBBhbOOPEclIle1Cy0f_XtsCFuTTmlfZ2jiamScW30NrIG-0oXWXr4mcamfMBp8dj5Om8j6UY26qGs8dQHFcUfcf36nQjE8VDHE3HkyamcA6E6RyHDl-M9cWfqGg0wzGMaUODd5JeDupMFXQP0c_Sm58jPi3kvoV75oTl8UY6M44DsScOl77sb8xYF2Z9pAn-i5TYDVPtx90EMntQ1OpPsNQZmaDmL6JIQMfjYKNB5ysQKlUskgZZgBaAQkKGbhgZkBU9M5p6UvyaQbmaxuGFNmU30G0SGW2uvskCResX6PveIs9v9K53mSOXHzIIwJp4Lw6Wu3meQfCqb09LYZ2CHDLSp_0aumPFehCJr444VKY0gSBpytnA-mIre5f5n-zv-bKcDnhjqN2QVlznBw0Om-3gqKx0UBlS3Q32xdO15x1ks4Arw6wlqIiK4YXu6g30gBvHyX6rHABeLeNUQJ5AzowW2j8NBwTUwbeo1zqxZ3LZBzBBs21sjzE0RGe-EWs0aJEiq9YoBWKP48ZjiPTWQmRPILJ2hu8mJD52NaETsfKFcLWxQn5lRVY1zdwn-bCEakhin46OJ95BmUo1y_Kx2Kb95pwdjU4b9ZO9A21sfbxjFFpYpWOwGsXbOhMD8aNmCdOu-_BXb5sB3FR07VudT5fr6vYW49Nx_m3RTDGSTYyTh9PuKE4mmQWeyQioDpbkc4LMqxT2bsZTFKsxf5hLDHAHAooOHDAx4VxXPNpwyNW9xcVuSjGcNvvbaBwgwUIuLGAL8BrfzKMeRkKDIjnxtPqghBqUwQbM1-QO1Oy0Z02iGLNwQd6gmNQ7jWCpfbbrXa_sP1KF1B4Crleay-N3haTZj78-riWY8lg9NcZIu8KeQ_2al4aFpM5KZwdWCvyPFZ_HAxsqUqkxjwaTxtPTDbTOYjBvD9isPZVG3oCVefksP3VVfAvPK7QZHnX54j_3F8BvKUT6N5p89KpnQE-6ooryctPPkpC9ykSLf6jB9ipI6yfTA0cmvdP7fFk18q8cczqGzJ7O1B4NhRtifH3eDCGuPoV7R__ewR8s1kCmn1DOkhIDNohGrlEtnE5gvah2KUr6TgacRwKlRsfKpNfmCGzXAG8Fx0fy7UtWZj0hrsnMR26UXuowRK3repY4ipsCHCHO1OTmP3F-b4eKa_x-eWeUlVpKerAIA0ga7XuPUjcf6bYAegQxIwlB4TNWmJUNQiWrP5Y543K49ogLdZPs0VyJtNzLhBuL7bRCEpaCODbRbUqBQ3FbDF1pUeNdeCW03rW7Nux1xCxUdfoTlArM5xGNzQqvJ6oYco3osdhYt2fb0e14CarF0L2etbonqKhWf4-d-ku8uvGXqftDEir1a7R1_0eGcbc12gvCimXT4NCnrJULeORrH89NV7q3Qyh05QprBcDCvbMogdSmWAYpIVTpZMwg1iAFJNNwKaNz9FPLETsky3wp6hXlUSyPz2YVn665lWXc_aftELlKfWPkIdEt7vhCBCEoJu_Avnhi-wG7cyBLTb61cs30gb536fuMfv-ipH3_7vIfqJsPBZnEx-ZqapaKW2LRouyqkU6y1XBBkrP7NBAVacJCSCk0ogB1KYIMPGuXkbMdQBXhtKVuXhtogUpdJsmmA3mC-OZggeVjIwsNxdSKxziqpAxDWxmECTS3GqprwTWCQrZJ0-OKd9FotQSiFv7fFWOPTfuJj2jREMsf-0dDkC5yOxofu-wNoY9jBgFLQRG1gvxGejy2hh-w-n0xyWsUUq7AF9iX2TVASDlmz1aOU532m3ngrxc4YcMk15v0I1c5UOUgxznSsVWhSR6UHZGmzEpZaKAzVqObSNVzpPwjoP2iwXxT8haIe7RWJ4tgHBSvSW5GwGIjbmI0DjnvRbPQG4XR7j7eO7IV0D8RocSlOxed0OhZw7IXuaywpM7uh2aifERHoz52hGzpBkxVgrildROm7El93WpgWkhIiDgw7XEcQdvCtuRSQo3Mc-pUUJWwdJqfEcqDAHlmeHmAxWYXocEfWqlx0L4eNjVC4SDOtBmMYOmAEs-FGURF215ql8gkaFm805DQd5lzNq3_1y2xOMFAIDr-M-7fwDA46LMG8rJ8At6DmLiRE6aXFiD_J2t_CQ_7q2DpsukY0mLNTBvzVdBsXRBtlynxpClUewRNVSsPTRCRcEmyhMBqZCEG9nw5sC4iCLmkCpmYg1qpvvnMolK6u7suBgG1ZoiwMUSeD7-fL5o_Z4LTR4X57pBVSNvYY9PwFUFef5HF9zj0klDorQgjQ9GdqNYWecuUedz2FqcLd0UgsErLAgFozQFrffdfd1QY6xophtrVFlHGwskOWO5-pwg7wqzZQtdyQNdoyUF9svwsHApQdHv_U4WqTtGrMXVtr56JTGy0M0VJLcN07vDOZra-dnsnUIjVfJfV2RBNFBaX9V1jBJ056hchIqCyaWDMurmorcH8Z_7gyFK3GVv6HlThcMo2q5jKh-nTneXmIUY3iOVPuMLy9gwt4KzKf8LdLn2vwJYkSZ62WBXlIUyr9hLuy_MG8aOJaCtBrnTs5wr6mwRUnGM_FRfPYnUT_uFrHyEzsiKAkiMx80Sneqkd3RZLI5YNb6dyZaiGRUTAEKx2P6e3dtbsLCgkoJCpPzZTcLqZLZq6L96Q5RErUNjzhmFNPT-2XlM0VjXNdxbM0bZT8GjNa73hidnnyTbSYgQ80VTkWTlMArs3xbHbzDYYTINGWirqoX5L8GNrxi4UfBRUJtWOMvSJhaldFdXUw2Y3CPV9jOQm_cKSOv5x3Q5f6ADq_gohMlj2QXTKAtTP8eY2Fk9w5bGHk8o9KPWT1uAEWQmnvlgnZ7nMH5GfM0o6Wh1b_TAfsPmgBIhTW5rN1Vf_Op1LugNpqyuX6gFSobaWYPboiFOezp6PtlpdPNhpfcpBZcvyzGGYJzl1dot8Q6y4tjNFj-_HsMBRxMc5SGkoWaYzeNbgWXZZQu9RslnASkWE5yrQrvuOkiFsZLrEp0tpm_msB88LtPYTz6eNda1W4tFZAN_QWRf59SKaGrVvOofXkFqPEc5eFNZgfCClN92bAqVbQB4MrvoHVvUmYdocbZY3mgc_Ntp---dn7xeiwmvRQgvDssGE_QWc0RWxeSk4MDt1BT2EXkLYVnxcpQqiqdNDHGQz3Nh7TDwZJoN_Ih1ptSMZ6DYXzsvtPwcF834t9DHh2Fb8iLTXalwe6hiLDIxAedcLereHpUb-MxgChcPE_jpz5YRoSJ2n2tWZU1A5-8E-3qmFuoZJ1qNHppzYESZlQvWt9hPswg9dhWNMvJvhAGKBpVUTYqTL-WLddG85x7JhAQS_heWXlwbbZPFvdRHydAoEArr5gyw9XdlAGxyqhPM9bDeQKX0hFol5wn6aKUAYTAhM00HOmKhy5CjJ-iGsDVUBuRjDkwOtpJ5SlcWhZ2k65a6yUH5lHrVMNUEMVThnIAbwCHWcU7Xq2RcBuCn-unQeTmdvklGZjr7VdIcpXVW5uS1OKSbC2VMUWddki7Wns_uV0tGUZtAFm3Xpl-DWKPwbL-VYrQjEZZhcrL-OVb4FQHtxx5qtqyirj5-yEHBwIxa5NEfsr6_D6AJRx2dsBNBvZqZlWYVN8ljTPCv-qvI9k1KGd3PCACqbieRPVfaT32QGgw7scwjZvDwQkD1J58nSncfycmZi7FfyktwwC2QJwRz1klPJEtjnC7kFMSAkrDmBNSEvUmeoZwvUdv4MgVVQ--prAmQnd9OpVFbbiazNEpdP7am1pd_4VcNpVVW73pP-PRC9_3Czw6BtWo7xplON-6w0hKLso3XCY1Oscmycw4w-1lfHStOdyoVKwlNq0fhjQnJME-RAez_fGO-bspMRZCQzOeR9u830mg4dvFZYjn-k-h7iqob3Fy1Z1dnGVaZp0C5QebrxMmm9kGhgIYGzikE-6jwF01JfRNiH0B_0_o8WpOgOa4Uf10oDa3H4P0w837RdO8RvCAnZF9yNwvZE1pFh-MyzKLCRvk2cbfvDQWq11QXMh7yx_ls4VVvoShPWNpuiBpwV_T7vTjJlbzJ3HdXypFo_?></g></svg>